<?xml version="1.0" encoding="utf-8" standalone="no"?>
<!DOCTYPE svg PUBLIC "-//W3C//DTD SVG 1.1//EN"
  "http://www.w3.org/Graphics/SVG/1.1/DTD/svg11.dtd">
<!-- Created with matplotlib (http://matplotlib.org/) -->
<svg height="288pt" version="1.1" viewBox="0 0 432 288" width="432pt" xmlns="http://www.w3.org/2000/svg" xmlns:xlink="http://www.w3.org/1999/xlink">
 <defs>
  <style type="text/css">
*{stroke-linecap:butt;stroke-linejoin:round;}
  </style>
 </defs>
 <g id="figure_1">
  <g id="patch_1">
   <path d="
M0 288
L432 288
L432 0
L0 0
z
" style="fill:#ffffff;"/>
  </g>
  <g id="axes_1">
   <g id="patch_2">
    <path d="
M54 252
L388.8 252
L388.8 28.8
L54 28.8
z
" style="fill:none;"/>
   </g>
   <g id="line2d_1">
    <path clip-path="url(#p124b8dd147)" d="
M54 252
L62.37 252
L70.74 252
L79.11 252
L87.48 252
L95.85 252
L104.22 252
L112.59 252
L120.96 252
L129.33 252
L137.7 252
L146.07 252
L154.44 252
L162.81 252
L171.18 252
L179.55 252
L187.92 252
L196.29 252
L204.66 252
L213.03 252
L221.4 252
L229.77 252
L238.14 252
L246.51 252
L254.88 252
L263.25 252
L271.62 252
L279.99 252
L288.36 252
L296.73 252
L305.1 252
L313.47 252
L321.84 252
L330.21 252
L338.58 252
L346.95 252
L355.32 252" style="fill:none;stroke:#0000ff;stroke-linecap:square;"/>
   </g>
   <g id="line2d_2">
    <path clip-path="url(#p124b8dd147)" d="
M54 252
L62.37 252
L70.74 252
L79.11 252
L87.48 252
L95.85 252
L104.22 252
L112.59 252
L120.96 252
L129.33 252
L137.7 252
L146.07 252
L154.44 252
L162.81 252
L171.18 252
L179.55 252
L187.92 252
L196.29 252
L204.66 134.453
L213.03 145.343
L221.4 252
L229.77 252
L238.14 252
L246.51 252
L254.88 252
L263.25 252
L271.62 252
L279.99 252
L288.36 252
L296.73 252
L305.1 252
L313.47 252
L321.84 252
L330.21 252
L338.58 252
L346.95 252
L355.32 252" style="fill:none;stroke:#008000;stroke-linecap:square;"/>
   </g>
   <g id="line2d_3">
    <path clip-path="url(#p124b8dd147)" d="
M54 252
L62.37 252
L70.74 252
L79.11 252
L87.48 252
L95.85 252
L104.22 252
L112.59 252
L120.96 252
L129.33 252
L137.7 252
L146.07 252
L154.44 252
L162.81 252
L171.18 252
L179.55 252
L187.92 252
L196.29 252
L204.66 100.491
L213.03 165.039
L221.4 175.367
L229.77 139.733
L238.14 114.158
L246.51 252
L254.88 252
L263.25 252
L271.62 252
L279.99 252
L288.36 252
L296.73 252
L305.1 252
L313.47 252
L321.84 252
L330.21 252
L338.58 252
L346.95 252
L355.32 252" style="fill:none;stroke:#ff0000;stroke-linecap:square;"/>
   </g>
   <g id="line2d_4">
    <path clip-path="url(#p124b8dd147)" d="
M54 252
L62.37 252
L70.74 252
L79.11 252
L87.48 252
L95.85 252
L104.22 252
L112.59 252
L120.96 252
L129.33 252
L137.7 252
L146.07 252
L154.44 252
L162.81 252
L171.18 252
L179.55 252
L187.92 252
L196.29 49.9412
L204.66 168.661
L213.03 168.428
L221.4 44.7985
L229.77 191.374
L238.14 181.128
L246.51 126.944
L254.88 150.432
L263.25 105.543
L271.62 252
L279.99 252
L288.36 252
L296.73 252
L305.1 252
L313.47 252
L321.84 252
L330.21 252
L338.58 252
L346.95 252
L355.32 252" style="fill:none;stroke:#00bfbf;stroke-linecap:square;"/>
   </g>
   <g id="line2d_5">
    <path clip-path="url(#p124b8dd147)" d="
M54 252
L62.37 252
L70.74 252
L79.11 252
L87.48 252
L95.85 252
L104.22 252
L112.59 252
L120.96 252
L129.33 252
L137.7 252
L146.07 252
L154.44 252
L162.81 252
L171.18 252
L179.55 252
L187.92 252
L196.29 153.028
L204.66 157.937
L213.03 114.789
L221.4 186.499
L229.77 119.625
L238.14 57.7933
L246.51 207.019
L254.88 139.945
L263.25 132.239
L271.62 190.629
L279.99 95.9518
L288.36 252
L296.73 252
L305.1 252
L313.47 252
L321.84 252
L330.21 252
L338.58 252
L346.95 252
L355.32 252" style="fill:none;stroke:#bf00bf;stroke-linecap:square;"/>
   </g>
   <g id="line2d_6">
    <path clip-path="url(#p124b8dd147)" d="
M54 252
L62.37 252
L70.74 252
L79.11 252
L87.48 252
L95.85 252
L104.22 252
L112.59 252
L120.96 252
L129.33 252
L137.7 252
L146.07 252
L154.44 252
L162.81 252
L171.18 252
L179.55 252
L187.92 252
L196.29 148.496
L204.66 171.191
L213.03 81.1309
L221.4 181.842
L229.77 168.474
L238.14 136.346
L246.51 124.066
L254.88 110.404
L263.25 166.281
L271.62 108.594
L279.99 160.436
L288.36 201.729
L296.73 98.1322
L305.1 140.057
L313.47 252
L321.84 252
L330.21 252
L338.58 252
L346.95 252
L355.32 252" style="fill:none;stroke:#bfbf00;stroke-linecap:square;"/>
   </g>
   <g id="line2d_7">
    <path clip-path="url(#p124b8dd147)" d="
M54 252
L62.37 252
L70.74 252
L79.11 252
L87.48 252
L95.85 252
L104.22 252
L112.59 252
L120.96 252
L129.33 252
L137.7 252
L146.07 252
L154.44 252
L162.81 252
L171.18 252
L179.55 252
L187.92 184.633
L196.29 179.559
L204.66 75.28
L213.03 186.764
L221.4 120.946
L229.77 56.7706
L238.14 241.348
L246.51 143.882
L254.88 96.3175
L263.25 193.515
L271.62 116.469
L279.99 109.128
L288.36 129.198
L296.73 162.231
L305.1 178.592
L313.47 126.433
L321.84 151.747
L330.21 252
L338.58 252
L346.95 252
L355.32 252" style="fill:none;stroke:#000000;stroke-linecap:square;"/>
   </g>
   <g id="line2d_8">
    <path clip-path="url(#p124b8dd147)" d="
M54 252
L62.37 252
L70.74 252
L79.11 252
L87.48 252
L95.85 252
L104.22 252
L112.59 252
L120.96 252
L129.33 252
L137.7 252
L146.07 252
L154.44 252
L162.81 252
L171.18 252
L179.55 252
L187.92 98.929
L196.29 145.086
L204.66 154.663
L213.03 166.318
L221.4 136.229
L229.77 171.105
L238.14 83.2706
L246.51 97.8901
L254.88 235.867
L263.25 83.7458
L271.62 130.675
L279.99 245.781
L288.36 66.5341
L296.73 111.9
L305.1 170.99
L313.47 111.63
L321.84 163.893
L330.21 167.046
L338.58 149.613
L346.95 108.833
L355.32 252" style="fill:none;stroke:#0000ff;stroke-linecap:square;"/>
   </g>
   <g id="line2d_9">
    <path clip-path="url(#p124b8dd147)" d="
M54 252
L62.37 252
L70.74 252
L79.11 252
L87.48 252
L95.85 252
L104.22 252
L112.59 252
L120.96 252
L129.33 252
L137.7 252
L146.07 252
L154.44 252
L162.81 252
L171.18 252
L179.55 134.382
L187.92 243.531
L196.29 72.7633
L204.66 117.929
L213.03 158.917
L221.4 99.358
L229.77 183.186
L238.14 168.256
L246.51 135.701
L254.88 115.074
L263.25 124.635
L271.62 164.453
L279.99 84.4652
L288.36 185.687
L296.73 210.866
L305.1 41.1755
L313.47 172.785
L321.84 165.569
L330.21 50.0766
L338.58 187.021
L346.95 177.454
L355.32 252" style="fill:none;stroke:#008000;stroke-linecap:square;"/>
   </g>
   <g id="line2d_10">
    <path clip-path="url(#p124b8dd147)" d="
M54 252
L62.37 252
L70.74 252
L79.11 252
L87.48 252
L95.85 252
L104.22 252
L112.59 252
L120.96 252
L129.33 252
L137.7 252
L146.07 252
L154.44 252
L162.81 252
L171.18 252
L179.55 144.857
L187.92 99.1751
L196.29 172.969
L204.66 204.072
L213.03 75.0584
L221.4 167.384
L229.77 137.745
L238.14 64.8354
L246.51 205.251
L254.88 150.217
L263.25 132.219
L271.62 176.115
L279.99 94.1346
L288.36 120.587
L296.73 139.556
L305.1 171.343
L313.47 158.233
L321.84 97.9782
L330.21 202.928
L338.58 117.126
L346.95 252
L355.32 252" style="fill:none;stroke:#ff0000;stroke-linecap:square;"/>
   </g>
   <g id="line2d_11">
    <path clip-path="url(#p124b8dd147)" d="
M54 252
L62.37 252
L70.74 252
L79.11 252
L87.48 252
L95.85 252
L104.22 252
L112.59 252
L120.96 252
L129.33 252
L137.7 252
L146.07 252
L154.44 252
L162.81 252
L171.18 252
L179.55 211.27
L187.92 78.6061
L196.29 115.712
L204.66 158.338
L213.03 141.396
L221.4 159.495
L229.77 131.97
L238.14 179.913
L246.51 109.68
L254.88 79.3669
L263.25 193.84
L271.62 114.909
L279.99 166.437
L288.36 201.76
L296.73 54.434
L305.1 145.73
L313.47 161.23
L321.84 99.6574
L330.21 171.391
L338.58 158.588
L346.95 252
L355.32 252" style="fill:none;stroke:#00bfbf;stroke-linecap:square;"/>
   </g>
   <g id="line2d_12">
    <path clip-path="url(#p124b8dd147)" d="
M54 252
L62.37 252
L70.74 252
L79.11 252
L87.48 252
L95.85 252
L104.22 252
L112.59 252
L120.96 252
L129.33 252
L137.7 252
L146.07 252
L154.44 252
L162.81 252
L171.18 184.248
L179.55 91.7688
L187.92 183.38
L196.29 210.612
L204.66 31.2521
L213.03 162.67
L221.4 174.485
L229.77 65.2853
L238.14 178.279
L246.51 174.867
L254.88 141.248
L263.25 129.023
L271.62 112.198
L279.99 146.016
L288.36 108.399
L296.73 190.044
L305.1 181.897
L313.47 70.2899
L321.84 190.874
L330.21 118.448
L338.58 62.9785
L346.95 252
L355.32 252" style="fill:none;stroke:#bf00bf;stroke-linecap:square;"/>
   </g>
   <g id="line2d_13">
    <path clip-path="url(#p124b8dd147)" d="
M54 252
L62.37 252
L70.74 252
L79.11 252
L87.48 252
L95.85 252
L104.22 252
L112.59 252
L120.96 252
L129.33 252
L137.7 252
L146.07 252
L154.44 252
L162.81 252
L171.18 142.584
L179.55 112.816
L187.92 128.567
L196.29 118.292
L204.66 198.133
L213.03 166.46
L221.4 67.1245
L229.77 210.78
L238.14 121.768
L246.51 41.6958
L254.88 233.175
L263.25 144.831
L271.62 108.082
L279.99 194.191
L288.36 111.747
L296.73 106.372
L305.1 130.968
L313.47 165.343
L321.84 163.821
L330.21 128.585
L338.58 252
L346.95 252
L355.32 252" style="fill:none;stroke:#bfbf00;stroke-linecap:square;"/>
   </g>
   <g id="line2d_14">
    <path clip-path="url(#p124b8dd147)" d="
M54 252
L62.37 252
L70.74 252
L79.11 252
L87.48 252
L95.85 252
L104.22 252
L112.59 252
L120.96 252
L129.33 252
L137.7 252
L146.07 252
L154.44 252
L162.81 252
L171.18 142.502
L179.55 126.29
L187.92 197.575
L196.29 91.9576
L204.66 113.444
L213.03 146.301
L221.4 148.351
L229.77 159.124
L238.14 137.852
L246.51 184.014
L254.88 84.2171
L263.25 94.6665
L271.62 230.411
L279.99 82.1106
L288.36 135.849
L296.73 241.065
L305.1 77.155
L313.47 119.487
L321.84 150.121
L330.21 109.897
L338.58 252
L346.95 252
L355.32 252" style="fill:none;stroke:#000000;stroke-linecap:square;"/>
   </g>
   <g id="line2d_15">
    <path clip-path="url(#p124b8dd147)" d="
M54 252
L62.37 252
L70.74 252
L79.11 252
L87.48 252
L95.85 252
L104.22 252
L112.59 252
L120.96 252
L129.33 252
L137.7 252
L146.07 252
L154.44 252
L162.81 105.264
L171.18 97.1724
L179.55 194.808
L187.92 96.5717
L196.29 155.633
L204.66 218.378
L213.03 75.6188
L221.4 143.272
L229.77 136.568
L238.14 93.4829
L246.51 199.617
L254.88 158.188
L263.25 132.432
L271.62 125.845
L279.99 129.192
L288.36 159.365
L296.73 79.0736
L305.1 179.656
L313.47 210.349
L321.84 66.9605
L330.21 252
L338.58 252
L346.95 252
L355.32 252" style="fill:none;stroke:#0000ff;stroke-linecap:square;"/>
   </g>
   <g id="line2d_16">
    <path clip-path="url(#p124b8dd147)" d="
M54 252
L62.37 252
L70.74 252
L79.11 252
L87.48 252
L95.85 252
L104.22 252
L112.59 252
L120.96 252
L129.33 252
L137.7 252
L146.07 252
L154.44 252
L162.81 152.656
L171.18 114.383
L179.55 160.32
L187.92 124.046
L196.29 132.186
L204.66 103.534
L213.03 173.243
L221.4 190.47
L229.77 99.1471
L238.14 175.098
L246.51 101.301
L254.88 83.213
L263.25 224.257
L271.62 117.767
L279.99 134.159
L288.36 195.67
L296.73 92.0577
L305.1 120.268
L313.47 136.8
L321.84 158.893
L330.21 252
L338.58 252
L346.95 252
L355.32 252" style="fill:none;stroke:#008000;stroke-linecap:square;"/>
   </g>
   <g id="line2d_17">
    <path clip-path="url(#p124b8dd147)" d="
M54 252
L62.37 252
L70.74 252
L79.11 252
L87.48 252
L95.85 252
L104.22 252
L112.59 252
L120.96 252
L129.33 252
L137.7 252
L146.07 252
L154.44 80.5933
L162.81 87.6751
L171.18 245.082
L179.55 92.9522
L187.92 125.186
L196.29 229.465
L204.66 83.9049
L213.03 111.818
L221.4 150.77
L229.77 134.766
L238.14 162.133
L246.51 149.526
L254.88 171.863
L263.25 92.8496
L271.62 107.234
L279.99 190.392
L288.36 84.6963
L296.73 186.388
L305.1 207.953
L313.47 38.6106
L321.84 159.888
L330.21 252
L338.58 252
L346.95 252
L355.32 252" style="fill:none;stroke:#ff0000;stroke-linecap:square;"/>
   </g>
   <g id="line2d_18">
    <path clip-path="url(#p124b8dd147)" d="
M54 252
L62.37 252
L70.74 252
L79.11 252
L87.48 252
L95.85 252
L104.22 252
L112.59 252
L120.96 252
L129.33 252
L137.7 252
L146.07 252
L154.44 163.124
L162.81 155.089
L171.18 91.1135
L179.55 125.155
L187.92 187.556
L196.29 66.9796
L204.66 184.851
L213.03 222.103
L221.4 36.4592
L229.77 163.578
L238.14 166.398
L246.51 65.6036
L254.88 177.633
L263.25 174.677
L271.62 145.353
L279.99 130.979
L288.36 117.657
L296.73 134.413
L305.1 103.897
L313.47 209.414
L321.84 252
L330.21 252
L338.58 252
L346.95 252
L355.32 252" style="fill:none;stroke:#00bfbf;stroke-linecap:square;"/>
   </g>
   <g id="line2d_19">
    <path clip-path="url(#p124b8dd147)" d="
M54 252
L62.37 252
L70.74 252
L79.11 252
L87.48 252
L95.85 252
L104.22 252
L112.59 252
L120.96 252
L129.33 252
L137.7 252
L146.07 252
L154.44 69.8171
L162.81 193.906
L171.18 161.335
L179.55 137.34
L187.92 150.242
L196.29 113.482
L204.66 127.912
L213.03 111.785
L221.4 196.889
L229.77 164.496
L238.14 69.9016
L246.51 215.566
L254.88 122.518
L263.25 42.4745
L271.62 214.68
L279.99 141.927
L288.36 132.81
L296.73 188.1
L305.1 100.526
L313.47 113.632
L321.84 252
L330.21 252
L338.58 252
L346.95 252
L355.32 252" style="fill:none;stroke:#bf00bf;stroke-linecap:square;"/>
   </g>
   <g id="line2d_20">
    <path clip-path="url(#p124b8dd147)" d="
M54 252
L62.37 252
L70.74 252
L79.11 252
L87.48 252
L95.85 252
L104.22 252
L112.59 252
L120.96 252
L129.33 252
L137.7 252
L146.07 102.395
L154.44 195.571
L162.81 113.14
L171.18 66.001
L179.55 202.212
L187.92 123.456
L196.29 157.402
L204.66 194.211
L213.03 72.2897
L221.4 131.435
L229.77 150.045
L238.14 134.929
L246.51 154.253
L254.88 141.07
L263.25 191.152
L271.62 93.8719
L279.99 92.6774
L288.36 205.895
L296.73 89.3898
L305.1 156.686
L313.47 217.456
L321.84 252
L330.21 252
L338.58 252
L346.95 252
L355.32 252" style="fill:none;stroke:#bfbf00;stroke-linecap:square;"/>
   </g>
   <g id="line2d_21">
    <path clip-path="url(#p124b8dd147)" d="
M54 252
L62.37 252
L70.74 252
L79.11 252
L87.48 252
L95.85 252
L104.22 252
L112.59 252
L120.96 252
L129.33 252
L137.7 252
L146.07 97.8781
L154.44 162.437
L162.81 160.28
L171.18 168.782
L179.55 111.343
L187.92 103.518
L196.29 167.621
L204.66 98.6398
L213.03 187.811
L221.4 190.902
L229.77 65.4858
L238.14 178.613
L246.51 126.644
L254.88 77.9565
L263.25 207.473
L271.62 153.043
L279.99 132.528
L288.36 139.898
L296.73 128.745
L305.1 145.844
L313.47 252
L321.84 252
L330.21 252
L338.58 252
L346.95 252
L355.32 252" style="fill:none;stroke:#000000;stroke-linecap:square;"/>
   </g>
   <g id="line2d_22">
    <path clip-path="url(#p124b8dd147)" d="
M54 252
L62.37 252
L70.74 252
L79.11 252
L87.48 252
L95.85 252
L104.22 252
L112.59 252
L120.96 252
L129.33 252
L137.7 51.3284
L146.07 208.123
L154.44 130.322
L162.81 48.4539
L171.18 217.048
L179.55 153.798
L187.92 121.993
L196.29 166.969
L204.66 120.707
L213.03 119.522
L221.4 111.686
L229.77 180.844
L238.14 166.902
L246.51 111.465
L254.88 195.648
L263.25 75.7298
L271.62 88.1952
L279.99 241.444
L288.36 95.9951
L296.73 131.311
L305.1 213.339
L313.47 252
L321.84 252
L330.21 252
L338.58 252
L346.95 252
L355.32 252" style="fill:none;stroke:#0000ff;stroke-linecap:square;"/>
   </g>
   <g id="line2d_23">
    <path clip-path="url(#p124b8dd147)" d="
M54 252
L62.37 252
L70.74 252
L79.11 252
L87.48 252
L95.85 252
L104.22 252
L112.59 252
L120.96 252
L129.33 252
L137.7 174.957
L146.07 151.337
L154.44 118.991
L162.81 206.957
L171.18 76.6404
L179.55 82.0809
L187.92 244.271
L196.29 88.8584
L204.66 128.923
L213.03 230.556
L221.4 90.9125
L229.77 113.468
L238.14 139.677
L246.51 132.103
L254.88 163.925
L263.25 159.34
L271.62 168.926
L279.99 77.7802
L288.36 128.082
L296.73 195.085
L305.1 252
L313.47 252
L321.84 252
L330.21 252
L338.58 252
L346.95 252
L355.32 252" style="fill:none;stroke:#008000;stroke-linecap:square;"/>
   </g>
   <g id="line2d_24">
    <path clip-path="url(#p124b8dd147)" d="
M54 252
L62.37 252
L70.74 252
L79.11 252
L87.48 252
L95.85 252
L104.22 252
L112.59 252
L120.96 252
L129.33 252
L137.7 130.076
L146.07 137.288
L154.44 114.499
L162.81 177.759
L171.18 160.156
L179.55 155.696
L187.92 93.5043
L196.29 131.579
L204.66 185.979
L213.03 58.4722
L221.4 179.699
L229.77 224.137
L238.14 59.0915
L246.51 162.369
L254.88 142.334
L263.25 77.7441
L271.62 185.213
L279.99 162.836
L288.36 146.627
L296.73 134.994
L305.1 252
L313.47 252
L321.84 252
L330.21 252
L338.58 252
L346.95 252
L355.32 252" style="fill:none;stroke:#ff0000;stroke-linecap:square;"/>
   </g>
   <g id="line2d_25">
    <path clip-path="url(#p124b8dd147)" d="
M54 252
L62.37 252
L70.74 252
L79.11 252
L87.48 252
L95.85 252
L104.22 252
L112.59 252
L120.96 252
L129.33 176.994
L137.7 204.859
L146.07 84.8041
L154.44 171.568
L162.81 110.842
L171.18 83.9301
L179.55 211.975
L187.92 135.938
L196.29 136.74
L204.66 164.933
L213.03 116.038
L221.4 127.226
L229.77 105.745
L238.14 185.267
L246.51 166.718
L254.88 89.6082
L263.25 206.322
L271.62 111.149
L279.99 64.8854
L288.36 200.442
L296.73 124.834
L305.1 252
L313.47 252
L321.84 252
L330.21 252
L338.58 252
L346.95 252
L355.32 252" style="fill:none;stroke:#00bfbf;stroke-linecap:square;"/>
   </g>
   <g id="line2d_26">
    <path clip-path="url(#p124b8dd147)" d="
M54 252
L62.37 252
L70.74 252
L79.11 252
L87.48 252
L95.85 252
L104.22 252
L112.59 252
L120.96 252
L129.33 116.691
L137.7 124.321
L146.07 159.272
L154.44 164.784
L162.81 128.137
L171.18 186.476
L179.55 89.6103
L187.92 97.8399
L196.29 201.009
L204.66 90.8667
L213.03 176.358
L221.4 202.078
L229.77 58.3941
L238.14 143.418
L246.51 152.212
L254.88 119.391
L263.25 152.74
L271.62 149.766
L279.99 188.205
L288.36 101.387
L296.73 252
L305.1 252
L313.47 252
L321.84 252
L330.21 252
L338.58 252
L346.95 252
L355.32 252" style="fill:none;stroke:#bf00bf;stroke-linecap:square;"/>
   </g>
   <g id="line2d_27">
    <path clip-path="url(#p124b8dd147)" d="
M54 252
L62.37 252
L70.74 252
L79.11 252
L87.48 252
L95.85 252
L104.22 252
L112.59 252
L120.96 252
L129.33 224.065
L137.7 46.7384
L146.07 149.847
L154.44 160.143
L162.81 91.6185
L171.18 163.566
L179.55 167.905
L187.92 164.286
L196.29 111.293
L204.66 119.073
L213.03 149.64
L221.4 89.3081
L229.77 215.386
L238.14 174.983
L246.51 51.1149
L254.88 206.91
L263.25 127.335
L271.62 60.8569
L279.99 203.259
L288.36 153.421
L296.73 252
L305.1 252
L313.47 252
L321.84 252
L330.21 252
L338.58 252
L346.95 252
L355.32 252" style="fill:none;stroke:#bfbf00;stroke-linecap:square;"/>
   </g>
   <g id="line2d_28">
    <path clip-path="url(#p124b8dd147)" d="
M54 252
L62.37 252
L70.74 252
L79.11 252
L87.48 252
L95.85 252
L104.22 252
L112.59 252
L120.96 139.999
L129.33 86.8023
L137.7 213.886
L146.07 173.933
L154.44 49.4115
L162.81 216.217
L171.18 130.839
L179.55 44.722
L187.92 203.856
L196.29 152.482
L204.66 138.319
L213.03 167.401
L221.4 114.723
L229.77 114.084
L238.14 118.189
L246.51 189.395
L254.88 144.948
L263.25 112.605
L271.62 219.955
L279.99 69.8255
L288.36 252
L296.73 252
L305.1 252
L313.47 252
L321.84 252
L330.21 252
L338.58 252
L346.95 252
L355.32 252" style="fill:none;stroke:#000000;stroke-linecap:square;"/>
   </g>
   <g id="line2d_29">
    <path clip-path="url(#p124b8dd147)" d="
M54 252
L62.37 252
L70.74 252
L79.11 252
L87.48 252
L95.85 252
L104.22 252
L112.59 252
L120.96 179.31
L129.33 93.5954
L137.7 121.16
L146.07 133.622
L154.44 170.139
L162.81 142.456
L171.18 120.096
L179.55 218.213
L187.92 84.6702
L196.29 78.6672
L204.66 221.771
L213.03 93.8105
L221.4 148.318
L229.77 213.956
L238.14 90.8064
L246.51 127.485
L254.88 130.656
L263.25 128.046
L271.62 163.924
L279.99 160.359
L288.36 252
L296.73 252
L305.1 252
L313.47 252
L321.84 252
L330.21 252
L338.58 252
L346.95 252
L355.32 252" style="fill:none;stroke:#0000ff;stroke-linecap:square;"/>
   </g>
   <g id="line2d_30">
    <path clip-path="url(#p124b8dd147)" d="
M54 252
L62.37 252
L70.74 252
L79.11 252
L87.48 252
L95.85 252
L104.22 252
L112.59 186.553
L120.96 96.2525
L129.33 180.338
L137.7 195.742
L146.07 71.023
L154.44 160.123
L162.81 131.382
L171.18 101.331
L179.55 180.14
L187.92 157.013
L196.29 158.76
L204.66 106.098
L213.03 130.645
L221.4 171.718
L229.77 66.7539
L238.14 181.256
L246.51 206.941
L254.88 83.5969
L263.25 171.741
L271.62 109.708
L279.99 89.9531
L288.36 252
L296.73 252
L305.1 252
L313.47 252
L321.84 252
L330.21 252
L338.58 252
L346.95 252
L355.32 252" style="fill:none;stroke:#008000;stroke-linecap:square;"/>
   </g>
   <g id="line2d_31">
    <path clip-path="url(#p124b8dd147)" d="
M54 252
L62.37 252
L70.74 252
L79.11 252
L87.48 252
L95.85 252
L104.22 252
L112.59 137.589
L120.96 125.101
L129.33 138.181
L137.7 93.3058
L146.07 189.982
L154.44 174.631
L162.81 97.3204
L171.18 196.269
L179.55 83.8332
L187.92 86.5009
L196.29 228.998
L204.66 116.375
L213.03 133.88
L221.4 181.715
L229.77 119.099
L238.14 122.831
L246.51 104.464
L254.88 172.995
L263.25 164.176
L271.62 119.353
L279.99 252
L288.36 252
L296.73 252
L305.1 252
L313.47 252
L321.84 252
L330.21 252
L338.58 252
L346.95 252
L355.32 252" style="fill:none;stroke:#ff0000;stroke-linecap:square;"/>
   </g>
   <g id="line2d_32">
    <path clip-path="url(#p124b8dd147)" d="
M54 252
L62.37 252
L70.74 252
L79.11 252
L87.48 252
L95.85 252
L104.22 252
L112.59 103.581
L120.96 127.853
L129.33 208.958
L137.7 108.243
L146.07 113.087
L154.44 122.856
L162.81 154.678
L171.18 157.84
L179.55 147.735
L187.92 185.547
L196.29 64.9702
L204.66 122.229
L213.03 209.221
L221.4 59.0655
L229.77 179.733
L238.14 215.858
L246.51 59.8238
L254.88 146.555
L263.25 147.641
L271.62 109.61
L279.99 252
L288.36 252
L296.73 252
L305.1 252
L313.47 252
L321.84 252
L330.21 252
L338.58 252
L346.95 252
L355.32 252" style="fill:none;stroke:#00bfbf;stroke-linecap:square;"/>
   </g>
   <g id="line2d_33">
    <path clip-path="url(#p124b8dd147)" d="
M54 252
L62.37 252
L70.74 252
L79.11 252
L87.48 252
L95.85 252
L104.22 68.1143
L112.59 128.506
L120.96 209.029
L129.33 48.8998
L137.7 174.196
L146.07 229.567
L154.44 64.1684
L162.81 149.55
L171.18 142.157
L179.55 95.2168
L187.92 169.677
L196.29 168.139
L204.66 158.71
L213.03 109.025
L221.4 137.448
L229.77 143.97
L238.14 72.3802
L246.51 224.418
L254.88 173.232
L263.25 47.4201
L271.62 216.547
L279.99 252
L288.36 252
L296.73 252
L305.1 252
L313.47 252
L321.84 252
L330.21 252
L338.58 252
L346.95 252
L355.32 252" style="fill:none;stroke:#bf00bf;stroke-linecap:square;"/>
   </g>
   <g id="line2d_34">
    <path clip-path="url(#p124b8dd147)" d="
M54 252
L62.37 252
L70.74 252
L79.11 252
L87.48 252
L95.85 252
L104.22 152.471
L112.59 145.143
L120.96 131.15
L129.33 136.263
L137.7 139.511
L146.07 76.0019
L154.44 204.501
L162.81 177.037
L171.18 67.7521
L179.55 209.037
L187.92 118.965
L196.29 62.0813
L204.66 194.156
L213.03 139.555
L221.4 156.136
L229.77 167.947
L238.14 108.121
L246.51 117.203
L254.88 120.408
L263.25 190.059
L271.62 252
L279.99 252
L288.36 252
L296.73 252
L305.1 252
L313.47 252
L321.84 252
L330.21 252
L338.58 252
L346.95 252
L355.32 252" style="fill:none;stroke:#bfbf00;stroke-linecap:square;"/>
   </g>
   <g id="line2d_35">
    <path clip-path="url(#p124b8dd147)" d="
M54 252
L62.37 252
L70.74 252
L79.11 252
L87.48 252
L95.85 92.9963
L104.22 89.4176
L112.59 202.478
L120.96 106.313
L129.33 166.586
L137.7 187.485
L146.07 84.8932
L154.44 129.651
L162.81 133.801
L171.18 157.058
L179.55 141.302
L187.92 129.217
L196.29 213.388
L204.66 91.6377
L213.03 89.3209
L221.4 190.549
L229.77 93.7134
L238.14 180.985
L246.51 192.074
L254.88 80.6268
L263.25 152.224
L271.62 252
L279.99 252
L288.36 252
L296.73 252
L305.1 252
L313.47 252
L321.84 252
L330.21 252
L338.58 252
L346.95 252
L355.32 252" style="fill:none;stroke:#000000;stroke-linecap:square;"/>
   </g>
   <g id="line2d_36">
    <path clip-path="url(#p124b8dd147)" d="
M54 252
L62.37 252
L70.74 252
L79.11 252
L87.48 252
L95.85 154.553
L104.22 184.904
L112.59 96.38
L120.96 114.592
L129.33 165.024
L137.7 82.647
L146.07 212.215
L154.44 181.556
L162.81 54.9851
L171.18 186.849
L179.55 132.655
L187.92 84.7355
L196.29 176.972
L204.66 157.449
L213.03 162.194
L221.4 120.516
L229.77 129.274
L238.14 146.949
L246.51 81.6093
L254.88 195.581
L263.25 252
L271.62 252
L279.99 252
L288.36 252
L296.73 252
L305.1 252
L313.47 252
L321.84 252
L330.21 252
L338.58 252
L346.95 252
L355.32 252" style="fill:none;stroke:#0000ff;stroke-linecap:square;"/>
   </g>
   <g id="line2d_37">
    <path clip-path="url(#p124b8dd147)" d="
M54 252
L62.37 252
L70.74 252
L79.11 252
L87.48 252
L95.85 59.038
L104.22 185.839
L112.59 159.757
L120.96 151.279
L129.33 143.561
L137.7 125.18
L146.07 120.85
L154.44 101.477
L162.81 207.662
L171.18 145.97
L179.55 96.9035
L187.92 226.16
L196.29 75.2346
L204.66 78.7881
L213.03 232.223
L221.4 109.135
L229.77 136.018
L238.14 191.326
L246.51 120.467
L254.88 116.678
L263.25 252
L271.62 252
L279.99 252
L288.36 252
L296.73 252
L305.1 252
L313.47 252
L321.84 252
L330.21 252
L338.58 252
L346.95 252
L355.32 252" style="fill:none;stroke:#008000;stroke-linecap:square;"/>
   </g>
   <g id="line2d_38">
    <path clip-path="url(#p124b8dd147)" d="
M54 252
L62.37 252
L70.74 252
L79.11 252
L87.48 98.7937
L95.85 236.231
L104.22 83.6102
L112.59 68.4047
L120.96 224.689
L129.33 105.871
L137.7 143.77
L146.07 201.297
L154.44 106.079
L162.81 117.317
L171.18 123.442
L179.55 152.816
L187.92 146.645
L196.29 155.453
L204.66 193.571
L213.03 54.023
L221.4 131.524
L229.77 213.584
L238.14 44.7685
L246.51 175.998
L254.88 222.524
L263.25 252
L271.62 252
L279.99 252
L288.36 252
L296.73 252
L305.1 252
L313.47 252
L321.84 252
L330.21 252
L338.58 252
L346.95 252
L355.32 252" style="fill:none;stroke:#ff0000;stroke-linecap:square;"/>
   </g>
   <g id="line2d_39">
    <path clip-path="url(#p124b8dd147)" d="
M54 252
L62.37 252
L70.74 252
L79.11 252
L87.48 130.195
L95.85 153.918
L104.22 155.139
L112.59 186.843
L120.96 77.6438
L129.33 127.225
L137.7 195.884
L146.07 55.8851
L154.44 177.213
L162.81 215.203
L171.18 83.9225
L179.55 158.135
L187.92 117.225
L196.29 101.189
L204.66 179.662
L213.03 159.389
L221.4 154.524
L229.77 111.471
L238.14 150.022
L246.51 144.113
L254.88 252
L263.25 252
L271.62 252
L279.99 252
L288.36 252
L296.73 252
L305.1 252
L313.47 252
L321.84 252
L330.21 252
L338.58 252
L346.95 252
L355.32 252" style="fill:none;stroke:#00bfbf;stroke-linecap:square;"/>
   </g>
   <g id="line2d_40">
    <path clip-path="url(#p124b8dd147)" d="
M54 252
L62.37 252
L70.74 252
L79.11 252
L87.48 186.309
L95.85 95.594
L104.22 92.3271
L112.59 207.173
L120.96 137.405
L129.33 142.896
L137.7 144.841
L146.07 139.351
L154.44 134.938
L162.81 76.2157
L171.18 191.366
L179.55 172.619
L187.92 100.453
L196.29 200.308
L204.66 91.8162
L213.03 91.3309
L221.4 195.566
L229.77 113.579
L238.14 167.133
L246.51 174.443
L254.88 252
L263.25 252
L271.62 252
L279.99 252
L288.36 252
L296.73 252
L305.1 252
L313.47 252
L321.84 252
L330.21 252
L338.58 252
L346.95 252
L355.32 252" style="fill:none;stroke:#bf00bf;stroke-linecap:square;"/>
   </g>
   <g id="line2d_41">
    <path clip-path="url(#p124b8dd147)" d="
M54 252
L62.37 252
L70.74 252
L79.11 174.702
L87.48 157.901
L95.85 133.231
L104.22 196.84
L112.59 61.6911
L120.96 114.23
L129.33 213.422
L137.7 74.5739
L146.07 169.319
L154.44 201.576
L162.81 85.8869
L171.18 133.195
L179.55 130.479
L187.92 142.471
L196.29 143.869
L204.66 147.112
L213.03 198.289
L221.4 88.4783
L229.77 116.181
L238.14 167.168
L246.51 252
L254.88 252
L263.25 252
L271.62 252
L279.99 252
L288.36 252
L296.73 252
L305.1 252
L313.47 252
L321.84 252
L330.21 252
L338.58 252
L346.95 252
L355.32 252" style="fill:none;stroke:#bfbf00;stroke-linecap:square;"/>
   </g>
   <g id="line2d_42">
    <path clip-path="url(#p124b8dd147)" d="
M54 252
L62.37 252
L70.74 252
L79.11 136.725
L87.48 134.565
L95.85 118.432
L104.22 155.606
L112.59 166.924
L120.96 173.796
L129.33 87.1679
L137.7 142.302
L146.07 157.865
L154.44 59.6146
L162.81 226.008
L171.18 181.069
L179.55 48.2765
L187.92 198.887
L196.29 133.228
L204.66 74.7225
L213.03 171.404
L221.4 159.61
L229.77 164.287
L238.14 129.881
L246.51 252
L254.88 252
L263.25 252
L271.62 252
L279.99 252
L288.36 252
L296.73 252
L305.1 252
L313.47 252
L321.84 252
L330.21 252
L338.58 252
L346.95 252
L355.32 252" style="fill:none;stroke:#000000;stroke-linecap:square;"/>
   </g>
   <g id="line2d_43">
    <path clip-path="url(#p124b8dd147)" d="
M54 252
L62.37 252
L70.74 214.669
L79.11 187.888
L87.48 56.3498
L95.85 201.211
L104.22 126.467
L112.59 68.6846
L120.96 180.9
L129.33 153.248
L137.7 158.273
L146.07 146.274
L154.44 128.278
L162.81 114.072
L171.18 101.618
L179.55 217.704
L187.92 130.541
L196.29 93.6859
L204.66 244.445
L213.03 80.5439
L221.4 72.347
L229.77 216.448
L238.14 110.133
L246.51 252
L254.88 252
L263.25 252
L271.62 252
L279.99 252
L288.36 252
L296.73 252
L305.1 252
L313.47 252
L321.84 252
L330.21 252
L338.58 252
L346.95 252
L355.32 252" style="fill:none;stroke:#0000ff;stroke-linecap:square;"/>
   </g>
   <g id="line2d_44">
    <path clip-path="url(#p124b8dd147)" d="
M54 252
L62.37 252
L70.74 120.805
L79.11 111.14
L87.48 192.234
L95.85 135.72
L104.22 107.046
L112.59 232.043
L120.96 89.1064
L129.33 78.1554
L137.7 196.974
L146.07 104.01
L154.44 171.525
L162.81 187.235
L171.18 97.1233
L179.55 131.465
L187.92 125.663
L196.29 148.037
L204.66 136.443
L213.03 155.016
L221.4 203.595
L229.77 62.0371
L238.14 252
L246.51 252
L254.88 252
L263.25 252
L271.62 252
L279.99 252
L288.36 252
L296.73 252
L305.1 252
L313.47 252
L321.84 252
L330.21 252
L338.58 252
L346.95 252
L355.32 252" style="fill:none;stroke:#008000;stroke-linecap:square;"/>
   </g>
   <g id="line2d_45">
    <path clip-path="url(#p124b8dd147)" d="
M54 252
L62.37 252
L70.74 182.215
L79.11 70.2353
L87.48 162.268
L95.85 132.852
L104.22 116.297
L112.59 150.083
L120.96 155.699
L129.33 189.65
L137.7 94.1482
L146.07 126.962
L154.44 166.981
L162.81 70.9288
L171.18 194.733
L179.55 183.348
L187.92 93.8067
L196.29 180.809
L204.66 97.2732
L213.03 101.35
L221.4 188.722
L229.77 147.395
L238.14 252
L246.51 252
L254.88 252
L263.25 252
L271.62 252
L279.99 252
L288.36 252
L296.73 252
L305.1 252
L313.47 252
L321.84 252
L330.21 252
L338.58 252
L346.95 252
L355.32 252" style="fill:none;stroke:#ff0000;stroke-linecap:square;"/>
   </g>
   <g id="line2d_46">
    <path clip-path="url(#p124b8dd147)" d="
M54 252
L62.37 129.758
L70.74 90.4468
L79.11 215.686
L87.48 151.245
L95.85 88.3908
L104.22 218.292
L112.59 86.5383
L120.96 83.6424
L129.33 210.528
L137.7 129.467
L146.07 144.655
L154.44 158.68
L162.81 138.04
L171.18 124.064
L179.55 87.6407
L187.92 185.059
L196.29 154.49
L204.66 130.472
L213.03 202.233
L221.4 59.5073
L229.77 115.944
L238.14 252
L246.51 252
L254.88 252
L263.25 252
L271.62 252
L279.99 252
L288.36 252
L296.73 252
L305.1 252
L313.47 252
L321.84 252
L330.21 252
L338.58 252
L346.95 252
L355.32 252" style="fill:none;stroke:#00bfbf;stroke-linecap:square;"/>
   </g>
   <g id="line2d_47">
    <path clip-path="url(#p124b8dd147)" d="
M54 252
L62.37 178.011
L70.74 128.264
L79.11 113.463
L87.48 111.696
L95.85 173.852
L104.22 136.118
L112.59 147.423
L120.96 209.492
L129.33 43.7681
L137.7 124.142
L146.07 220.973
L154.44 57.256
L162.81 166.801
L171.18 211.474
L179.55 95.1272
L187.92 133.417
L196.29 123.83
L204.66 133.087
L213.03 145.606
L221.4 166.155
L229.77 252
L238.14 252
L246.51 252
L254.88 252
L263.25 252
L271.62 252
L279.99 252
L288.36 252
L296.73 252
L305.1 252
L313.47 252
L321.84 252
L330.21 252
L338.58 252
L346.95 252
L355.32 252" style="fill:none;stroke:#bf00bf;stroke-linecap:square;"/>
   </g>
   <g id="line2d_48">
    <path clip-path="url(#p124b8dd147)" d="
M54 252
L62.37 252
L70.74 252
L79.11 252
L87.48 111.919
L95.85 137.592
L104.22 118.764
L112.59 118.618
L120.96 158.354
L129.33 170.432
L137.7 167.879
L146.07 81.1732
L154.44 161.312
L162.81 158.565
L171.18 40.7981
L179.55 220.849
L187.92 185.739
L196.29 61.18
L204.66 197.048
L213.03 124.084
L221.4 79.4292
L229.77 252
L238.14 252
L246.51 252
L254.88 252
L263.25 252
L271.62 252
L279.99 252
L288.36 252
L296.73 252
L305.1 252
L313.47 252
L321.84 252
L330.21 252
L338.58 252
L346.95 252
L355.32 252" style="fill:none;stroke:#bfbf00;stroke-linecap:square;"/>
   </g>
   <g id="line2d_49">
    <path clip-path="url(#p124b8dd147)" d="
M54 252
L62.37 252
L70.74 252
L79.11 252
L87.48 252
L95.85 252
L104.22 101.895
L112.59 180.141
L120.96 107.602
L129.33 93.0004
L137.7 180.443
L146.07 135.88
L154.44 162.342
L162.81 151.149
L171.18 133.134
L179.55 115.917
L187.92 96.615
L196.29 211.387
L204.66 128.644
L213.03 100.849
L221.4 252
L229.77 252
L238.14 252
L246.51 252
L254.88 252
L263.25 252
L271.62 252
L279.99 252
L288.36 252
L296.73 252
L305.1 252
L313.47 252
L321.84 252
L330.21 252
L338.58 252
L346.95 252
L355.32 252" style="fill:none;stroke:#000000;stroke-linecap:square;"/>
   </g>
   <g id="line2d_50">
    <path clip-path="url(#p124b8dd147)" d="
M54 252
L62.37 252
L70.74 252
L79.11 252
L87.48 252
L95.85 252
L104.22 252
L112.59 252
L120.96 252
L129.33 201.669
L137.7 100.097
L146.07 106.521
L154.44 169.211
L162.81 91.3524
L171.18 199.749
L179.55 177.016
L187.92 86.0694
L196.29 149.519
L204.66 127.979
L213.03 137.199
L221.4 252
L229.77 252
L238.14 252
L246.51 252
L254.88 252
L263.25 252
L271.62 252
L279.99 252
L288.36 252
L296.73 252
L305.1 252
L313.47 252
L321.84 252
L330.21 252
L338.58 252
L346.95 252
L355.32 252" style="fill:none;stroke:#0000ff;stroke-linecap:square;"/>
   </g>
   <g id="line2d_51">
    <path clip-path="url(#p124b8dd147)" d="
M54 252
L62.37 252
L70.74 252
L79.11 252
L87.48 252
L95.85 252
L104.22 252
L112.59 252
L120.96 252
L129.33 252
L137.7 252
L146.07 183.486
L154.44 120.878
L162.81 131.275
L171.18 132.045
L179.55 83.9122
L187.92 219.933
L196.29 149.444
L204.66 92.5687
L213.03 211.008
L221.4 252
L229.77 252
L238.14 252
L246.51 252
L254.88 252
L263.25 252
L271.62 252
L279.99 252
L288.36 252
L296.73 252
L305.1 252
L313.47 252
L321.84 252
L330.21 252
L338.58 252
L346.95 252
L355.32 252" style="fill:none;stroke:#008000;stroke-linecap:square;"/>
   </g>
   <g id="line2d_52">
    <path clip-path="url(#p124b8dd147)" d="
M54 252
L62.37 252
L70.74 252
L79.11 252
L87.48 252
L95.85 252
L104.22 252
L112.59 252
L120.96 252
L129.33 252
L137.7 252
L146.07 252
L154.44 252
L162.81 252
L171.18 166.533
L179.55 136.684
L187.92 113.166
L196.29 103.874
L204.66 184.685
L213.03 252
L221.4 252
L229.77 252
L238.14 252
L246.51 252
L254.88 252
L263.25 252
L271.62 252
L279.99 252
L288.36 252
L296.73 252
L305.1 252
L313.47 252
L321.84 252
L330.21 252
L338.58 252
L346.95 252
L355.32 252" style="fill:none;stroke:#ff0000;stroke-linecap:square;"/>
   </g>
   <g id="line2d_53">
    <path clip-path="url(#p124b8dd147)" d="
M54 252
L62.37 252
L70.74 252
L79.11 252
L87.48 252
L95.85 252
L104.22 252
L112.59 252
L120.96 252
L129.33 252
L137.7 252
L146.07 252
L154.44 252
L162.81 252
L171.18 252
L179.55 252
L187.92 252
L196.29 120.623
L204.66 134.119
L213.03 252
L221.4 252
L229.77 252
L238.14 252
L246.51 252
L254.88 252
L263.25 252
L271.62 252
L279.99 252
L288.36 252
L296.73 252
L305.1 252
L313.47 252
L321.84 252
L330.21 252
L338.58 252
L346.95 252
L355.32 252" style="fill:none;stroke:#00bfbf;stroke-linecap:square;"/>
   </g>
   <g id="line2d_54">
    <path clip-path="url(#p124b8dd147)" d="
M54 252
L62.37 252
L70.74 252
L79.11 252
L87.48 252
L95.85 252
L104.22 252
L112.59 252
L120.96 252
L129.33 252
L137.7 252
L146.07 252
L154.44 252
L162.81 252
L171.18 252
L179.55 252
L187.92 252
L196.29 252
L204.66 252
L213.03 252
L221.4 252
L229.77 252
L238.14 252
L246.51 252
L254.88 252
L263.25 252
L271.62 252
L279.99 252
L288.36 252
L296.73 252
L305.1 252
L313.47 252
L321.84 252
L330.21 252
L338.58 252
L346.95 252
L355.32 252" style="fill:none;stroke:#bf00bf;stroke-linecap:square;"/>
   </g>
   <g id="patch_3">
    <path d="
M54 28.8
L388.8 28.8" style="fill:none;stroke:#000000;stroke-linecap:square;stroke-linejoin:miter;"/>
   </g>
   <g id="patch_4">
    <path d="
M388.8 252
L388.8 28.8" style="fill:none;stroke:#000000;stroke-linecap:square;stroke-linejoin:miter;"/>
   </g>
   <g id="patch_5">
    <path d="
M54 252
L388.8 252" style="fill:none;stroke:#000000;stroke-linecap:square;stroke-linejoin:miter;"/>
   </g>
   <g id="patch_6">
    <path d="
M54 252
L54 28.8" style="fill:none;stroke:#000000;stroke-linecap:square;stroke-linejoin:miter;"/>
   </g>
   <g id="matplotlib.axis_1">
    <g id="xtick_1">
     <g id="line2d_55">
      <defs>
       <path d="
M0 0
L0 -4" id="m93b0483c22" style="stroke:#000000;stroke-width:0.5;"/>
      </defs>
      <g>
       <use style="stroke:#000000;stroke-width:0.5;" x="54.0" xlink:href="#m93b0483c22" y="252.0"/>
      </g>
     </g>
     <g id="line2d_56">
      <defs>
       <path d="
M0 0
L0 4" id="m741efc42ff" style="stroke:#000000;stroke-width:0.5;"/>
      </defs>
      <g>
       <use style="stroke:#000000;stroke-width:0.5;" x="54.0" xlink:href="#m741efc42ff" y="28.8"/>
      </g>
     </g>
     <g id="text_1">
      <!-- 0 -->
      <defs>
       <path d="
M31.7812 66.4062
Q24.1719 66.4062 20.3281 58.9062
Q16.5 51.4219 16.5 36.375
Q16.5 21.3906 20.3281 13.8906
Q24.1719 6.39062 31.7812 6.39062
Q39.4531 6.39062 43.2812 13.8906
Q47.125 21.3906 47.125 36.375
Q47.125 51.4219 43.2812 58.9062
Q39.4531 66.4062 31.7812 66.4062
M31.7812 74.2188
Q44.0469 74.2188 50.5156 64.5156
Q56.9844 54.8281 56.9844 36.375
Q56.9844 17.9688 50.5156 8.26562
Q44.0469 -1.42188 31.7812 -1.42188
Q19.5312 -1.42188 13.0625 8.26562
Q6.59375 17.9688 6.59375 36.375
Q6.59375 54.8281 13.0625 64.5156
Q19.5312 74.2188 31.7812 74.2188" id="BitstreamVeraSans-Roman-30"/>
      </defs>
      <g transform="translate(51.48046875 263.5984375)scale(0.1 -0.1)">
       <use xlink:href="#BitstreamVeraSans-Roman-30"/>
      </g>
     </g>
    </g>
    <g id="xtick_2">
     <g id="line2d_57">
      <g>
       <use style="stroke:#000000;stroke-width:0.5;" x="95.85" xlink:href="#m93b0483c22" y="252.0"/>
      </g>
     </g>
     <g id="line2d_58">
      <g>
       <use style="stroke:#000000;stroke-width:0.5;" x="95.85" xlink:href="#m741efc42ff" y="28.8"/>
      </g>
     </g>
     <g id="text_2">
      <!-- 5 -->
      <defs>
       <path d="
M10.7969 72.9062
L49.5156 72.9062
L49.5156 64.5938
L19.8281 64.5938
L19.8281 46.7344
Q21.9688 47.4688 24.1094 47.8281
Q26.2656 48.1875 28.4219 48.1875
Q40.625 48.1875 47.75 41.5
Q54.8906 34.8125 54.8906 23.3906
Q54.8906 11.625 47.5625 5.09375
Q40.2344 -1.42188 26.9062 -1.42188
Q22.3125 -1.42188 17.5469 -0.640625
Q12.7969 0.140625 7.71875 1.70312
L7.71875 11.625
Q12.1094 9.23438 16.7969 8.0625
Q21.4844 6.89062 26.7031 6.89062
Q35.1562 6.89062 40.0781 11.3281
Q45.0156 15.7656 45.0156 23.3906
Q45.0156 31 40.0781 35.4375
Q35.1562 39.8906 26.7031 39.8906
Q22.75 39.8906 18.8125 39.0156
Q14.8906 38.1406 10.7969 36.2812
z
" id="BitstreamVeraSans-Roman-35"/>
      </defs>
      <g transform="translate(93.49140625 263.5984375)scale(0.1 -0.1)">
       <use xlink:href="#BitstreamVeraSans-Roman-35"/>
      </g>
     </g>
    </g>
    <g id="xtick_3">
     <g id="line2d_59">
      <g>
       <use style="stroke:#000000;stroke-width:0.5;" x="137.7" xlink:href="#m93b0483c22" y="252.0"/>
      </g>
     </g>
     <g id="line2d_60">
      <g>
       <use style="stroke:#000000;stroke-width:0.5;" x="137.7" xlink:href="#m741efc42ff" y="28.8"/>
      </g>
     </g>
     <g id="text_3">
      <!-- 10 -->
      <defs>
       <path d="
M12.4062 8.29688
L28.5156 8.29688
L28.5156 63.9219
L10.9844 60.4062
L10.9844 69.3906
L28.4219 72.9062
L38.2812 72.9062
L38.2812 8.29688
L54.3906 8.29688
L54.3906 0
L12.4062 0
z
" id="BitstreamVeraSans-Roman-31"/>
      </defs>
      <g transform="translate(132.21875 263.5984375)scale(0.1 -0.1)">
       <use xlink:href="#BitstreamVeraSans-Roman-31"/>
       <use x="63.623046875" xlink:href="#BitstreamVeraSans-Roman-30"/>
      </g>
     </g>
    </g>
    <g id="xtick_4">
     <g id="line2d_61">
      <g>
       <use style="stroke:#000000;stroke-width:0.5;" x="179.55" xlink:href="#m93b0483c22" y="252.0"/>
      </g>
     </g>
     <g id="line2d_62">
      <g>
       <use style="stroke:#000000;stroke-width:0.5;" x="179.55" xlink:href="#m741efc42ff" y="28.8"/>
      </g>
     </g>
     <g id="text_4">
      <!-- 15 -->
      <g transform="translate(174.1734375 263.5984375)scale(0.1 -0.1)">
       <use xlink:href="#BitstreamVeraSans-Roman-31"/>
       <use x="63.623046875" xlink:href="#BitstreamVeraSans-Roman-35"/>
      </g>
     </g>
    </g>
    <g id="xtick_5">
     <g id="line2d_63">
      <g>
       <use style="stroke:#000000;stroke-width:0.5;" x="221.4" xlink:href="#m93b0483c22" y="252.0"/>
      </g>
     </g>
     <g id="line2d_64">
      <g>
       <use style="stroke:#000000;stroke-width:0.5;" x="221.4" xlink:href="#m741efc42ff" y="28.8"/>
      </g>
     </g>
     <g id="text_5">
      <!-- 20 -->
      <defs>
       <path d="
M19.1875 8.29688
L53.6094 8.29688
L53.6094 0
L7.32812 0
L7.32812 8.29688
Q12.9375 14.1094 22.625 23.8906
Q32.3281 33.6875 34.8125 36.5312
Q39.5469 41.8438 41.4219 45.5312
Q43.3125 49.2188 43.3125 52.7812
Q43.3125 58.5938 39.2344 62.25
Q35.1562 65.9219 28.6094 65.9219
Q23.9688 65.9219 18.8125 64.3125
Q13.6719 62.7031 7.8125 59.4219
L7.8125 69.3906
Q13.7656 71.7812 18.9375 73
Q24.125 74.2188 28.4219 74.2188
Q39.75 74.2188 46.4844 68.5469
Q53.2188 62.8906 53.2188 53.4219
Q53.2188 48.9219 51.5312 44.8906
Q49.8594 40.875 45.4062 35.4062
Q44.1875 33.9844 37.6406 27.2188
Q31.1094 20.4531 19.1875 8.29688" id="BitstreamVeraSans-Roman-32"/>
      </defs>
      <g transform="translate(215.7359375 263.5984375)scale(0.1 -0.1)">
       <use xlink:href="#BitstreamVeraSans-Roman-32"/>
       <use x="63.623046875" xlink:href="#BitstreamVeraSans-Roman-30"/>
      </g>
     </g>
    </g>
    <g id="xtick_6">
     <g id="line2d_65">
      <g>
       <use style="stroke:#000000;stroke-width:0.5;" x="263.25" xlink:href="#m93b0483c22" y="252.0"/>
      </g>
     </g>
     <g id="line2d_66">
      <g>
       <use style="stroke:#000000;stroke-width:0.5;" x="263.25" xlink:href="#m741efc42ff" y="28.8"/>
      </g>
     </g>
     <g id="text_6">
      <!-- 25 -->
      <g transform="translate(257.690625 263.5984375)scale(0.1 -0.1)">
       <use xlink:href="#BitstreamVeraSans-Roman-32"/>
       <use x="63.623046875" xlink:href="#BitstreamVeraSans-Roman-35"/>
      </g>
     </g>
    </g>
    <g id="xtick_7">
     <g id="line2d_67">
      <g>
       <use style="stroke:#000000;stroke-width:0.5;" x="305.1" xlink:href="#m93b0483c22" y="252.0"/>
      </g>
     </g>
     <g id="line2d_68">
      <g>
       <use style="stroke:#000000;stroke-width:0.5;" x="305.1" xlink:href="#m741efc42ff" y="28.8"/>
      </g>
     </g>
     <g id="text_7">
      <!-- 30 -->
      <defs>
       <path d="
M40.5781 39.3125
Q47.6562 37.7969 51.625 33
Q55.6094 28.2188 55.6094 21.1875
Q55.6094 10.4062 48.1875 4.48438
Q40.7656 -1.42188 27.0938 -1.42188
Q22.5156 -1.42188 17.6562 -0.515625
Q12.7969 0.390625 7.625 2.20312
L7.625 11.7188
Q11.7188 9.32812 16.5938 8.10938
Q21.4844 6.89062 26.8125 6.89062
Q36.0781 6.89062 40.9375 10.5469
Q45.7969 14.2031 45.7969 21.1875
Q45.7969 27.6406 41.2812 31.2656
Q36.7656 34.9062 28.7188 34.9062
L20.2188 34.9062
L20.2188 43.0156
L29.1094 43.0156
Q36.375 43.0156 40.2344 45.9219
Q44.0938 48.8281 44.0938 54.2969
Q44.0938 59.9062 40.1094 62.9062
Q36.1406 65.9219 28.7188 65.9219
Q24.6562 65.9219 20.0156 65.0312
Q15.375 64.1562 9.8125 62.3125
L9.8125 71.0938
Q15.4375 72.6562 20.3438 73.4375
Q25.25 74.2188 29.5938 74.2188
Q40.8281 74.2188 47.3594 69.1094
Q53.9062 64.0156 53.9062 55.3281
Q53.9062 49.2656 50.4375 45.0938
Q46.9688 40.9219 40.5781 39.3125" id="BitstreamVeraSans-Roman-33"/>
      </defs>
      <g transform="translate(299.45078125 263.5984375)scale(0.1 -0.1)">
       <use xlink:href="#BitstreamVeraSans-Roman-33"/>
       <use x="63.623046875" xlink:href="#BitstreamVeraSans-Roman-30"/>
      </g>
     </g>
    </g>
    <g id="xtick_8">
     <g id="line2d_69">
      <g>
       <use style="stroke:#000000;stroke-width:0.5;" x="346.95" xlink:href="#m93b0483c22" y="252.0"/>
      </g>
     </g>
     <g id="line2d_70">
      <g>
       <use style="stroke:#000000;stroke-width:0.5;" x="346.95" xlink:href="#m741efc42ff" y="28.8"/>
      </g>
     </g>
     <g id="text_8">
      <!-- 35 -->
      <g transform="translate(341.40546875 263.5984375)scale(0.1 -0.1)">
       <use xlink:href="#BitstreamVeraSans-Roman-33"/>
       <use x="63.623046875" xlink:href="#BitstreamVeraSans-Roman-35"/>
      </g>
     </g>
    </g>
    <g id="xtick_9">
     <g id="line2d_71">
      <g>
       <use style="stroke:#000000;stroke-width:0.5;" x="388.8" xlink:href="#m93b0483c22" y="252.0"/>
      </g>
     </g>
     <g id="line2d_72">
      <g>
       <use style="stroke:#000000;stroke-width:0.5;" x="388.8" xlink:href="#m741efc42ff" y="28.8"/>
      </g>
     </g>
     <g id="text_9">
      <!-- 40 -->
      <defs>
       <path d="
M37.7969 64.3125
L12.8906 25.3906
L37.7969 25.3906
z

M35.2031 72.9062
L47.6094 72.9062
L47.6094 25.3906
L58.0156 25.3906
L58.0156 17.1875
L47.6094 17.1875
L47.6094 0
L37.7969 0
L37.7969 17.1875
L4.89062 17.1875
L4.89062 26.7031
z
" id="BitstreamVeraSans-Roman-34"/>
      </defs>
      <g transform="translate(383.0140625 263.5984375)scale(0.1 -0.1)">
       <use xlink:href="#BitstreamVeraSans-Roman-34"/>
       <use x="63.623046875" xlink:href="#BitstreamVeraSans-Roman-30"/>
      </g>
     </g>
    </g>
   </g>
   <g id="matplotlib.axis_2">
    <g id="ytick_1">
     <g id="line2d_73">
      <defs>
       <path d="
M0 0
L4 0" id="m728421d6d4" style="stroke:#000000;stroke-width:0.5;"/>
      </defs>
      <g>
       <use style="stroke:#000000;stroke-width:0.5;" x="54.0" xlink:href="#m728421d6d4" y="252.0"/>
      </g>
     </g>
     <g id="line2d_74">
      <defs>
       <path d="
M0 0
L-4 0" id="mcb0005524f" style="stroke:#000000;stroke-width:0.5;"/>
      </defs>
      <g>
       <use style="stroke:#000000;stroke-width:0.5;" x="388.8" xlink:href="#mcb0005524f" y="252.0"/>
      </g>
     </g>
     <g id="text_10">
      <!-- 0 -->
      <g transform="translate(44.9609375 254.759375)scale(0.1 -0.1)">
       <use xlink:href="#BitstreamVeraSans-Roman-30"/>
      </g>
     </g>
    </g>
    <g id="ytick_2">
     <g id="line2d_75">
      <g>
       <use style="stroke:#000000;stroke-width:0.5;" x="54.0" xlink:href="#m728421d6d4" y="224.1"/>
      </g>
     </g>
     <g id="line2d_76">
      <g>
       <use style="stroke:#000000;stroke-width:0.5;" x="388.8" xlink:href="#mcb0005524f" y="224.1"/>
      </g>
     </g>
     <g id="text_11">
      <!-- 500 -->
      <g transform="translate(32.3484375 226.859375)scale(0.1 -0.1)">
       <use xlink:href="#BitstreamVeraSans-Roman-35"/>
       <use x="63.623046875" xlink:href="#BitstreamVeraSans-Roman-30"/>
       <use x="127.24609375" xlink:href="#BitstreamVeraSans-Roman-30"/>
      </g>
     </g>
    </g>
    <g id="ytick_3">
     <g id="line2d_77">
      <g>
       <use style="stroke:#000000;stroke-width:0.5;" x="54.0" xlink:href="#m728421d6d4" y="196.2"/>
      </g>
     </g>
     <g id="line2d_78">
      <g>
       <use style="stroke:#000000;stroke-width:0.5;" x="388.8" xlink:href="#mcb0005524f" y="196.2"/>
      </g>
     </g>
     <g id="text_12">
      <!-- 1000 -->
      <g transform="translate(26.3125 198.959375)scale(0.1 -0.1)">
       <use xlink:href="#BitstreamVeraSans-Roman-31"/>
       <use x="63.623046875" xlink:href="#BitstreamVeraSans-Roman-30"/>
       <use x="127.24609375" xlink:href="#BitstreamVeraSans-Roman-30"/>
       <use x="190.869140625" xlink:href="#BitstreamVeraSans-Roman-30"/>
      </g>
     </g>
    </g>
    <g id="ytick_4">
     <g id="line2d_79">
      <g>
       <use style="stroke:#000000;stroke-width:0.5;" x="54.0" xlink:href="#m728421d6d4" y="168.3"/>
      </g>
     </g>
     <g id="line2d_80">
      <g>
       <use style="stroke:#000000;stroke-width:0.5;" x="388.8" xlink:href="#mcb0005524f" y="168.3"/>
      </g>
     </g>
     <g id="text_13">
      <!-- 1500 -->
      <g transform="translate(26.3125 171.059375)scale(0.1 -0.1)">
       <use xlink:href="#BitstreamVeraSans-Roman-31"/>
       <use x="63.623046875" xlink:href="#BitstreamVeraSans-Roman-35"/>
       <use x="127.24609375" xlink:href="#BitstreamVeraSans-Roman-30"/>
       <use x="190.869140625" xlink:href="#BitstreamVeraSans-Roman-30"/>
      </g>
     </g>
    </g>
    <g id="ytick_5">
     <g id="line2d_81">
      <g>
       <use style="stroke:#000000;stroke-width:0.5;" x="54.0" xlink:href="#m728421d6d4" y="140.4"/>
      </g>
     </g>
     <g id="line2d_82">
      <g>
       <use style="stroke:#000000;stroke-width:0.5;" x="388.8" xlink:href="#mcb0005524f" y="140.4"/>
      </g>
     </g>
     <g id="text_14">
      <!-- 2000 -->
      <g transform="translate(25.946875 143.159375)scale(0.1 -0.1)">
       <use xlink:href="#BitstreamVeraSans-Roman-32"/>
       <use x="63.623046875" xlink:href="#BitstreamVeraSans-Roman-30"/>
       <use x="127.24609375" xlink:href="#BitstreamVeraSans-Roman-30"/>
       <use x="190.869140625" xlink:href="#BitstreamVeraSans-Roman-30"/>
      </g>
     </g>
    </g>
    <g id="ytick_6">
     <g id="line2d_83">
      <g>
       <use style="stroke:#000000;stroke-width:0.5;" x="54.0" xlink:href="#m728421d6d4" y="112.5"/>
      </g>
     </g>
     <g id="line2d_84">
      <g>
       <use style="stroke:#000000;stroke-width:0.5;" x="388.8" xlink:href="#mcb0005524f" y="112.5"/>
      </g>
     </g>
     <g id="text_15">
      <!-- 2500 -->
      <g transform="translate(25.946875 115.259375)scale(0.1 -0.1)">
       <use xlink:href="#BitstreamVeraSans-Roman-32"/>
       <use x="63.623046875" xlink:href="#BitstreamVeraSans-Roman-35"/>
       <use x="127.24609375" xlink:href="#BitstreamVeraSans-Roman-30"/>
       <use x="190.869140625" xlink:href="#BitstreamVeraSans-Roman-30"/>
      </g>
     </g>
    </g>
    <g id="ytick_7">
     <g id="line2d_85">
      <g>
       <use style="stroke:#000000;stroke-width:0.5;" x="54.0" xlink:href="#m728421d6d4" y="84.6"/>
      </g>
     </g>
     <g id="line2d_86">
      <g>
       <use style="stroke:#000000;stroke-width:0.5;" x="388.8" xlink:href="#mcb0005524f" y="84.6"/>
      </g>
     </g>
     <g id="text_16">
      <!-- 3000 -->
      <g transform="translate(25.9765625 87.359375)scale(0.1 -0.1)">
       <use xlink:href="#BitstreamVeraSans-Roman-33"/>
       <use x="63.623046875" xlink:href="#BitstreamVeraSans-Roman-30"/>
       <use x="127.24609375" xlink:href="#BitstreamVeraSans-Roman-30"/>
       <use x="190.869140625" xlink:href="#BitstreamVeraSans-Roman-30"/>
      </g>
     </g>
    </g>
    <g id="ytick_8">
     <g id="line2d_87">
      <g>
       <use style="stroke:#000000;stroke-width:0.5;" x="54.0" xlink:href="#m728421d6d4" y="56.7"/>
      </g>
     </g>
     <g id="line2d_88">
      <g>
       <use style="stroke:#000000;stroke-width:0.5;" x="388.8" xlink:href="#mcb0005524f" y="56.7"/>
      </g>
     </g>
     <g id="text_17">
      <!-- 3500 -->
      <g transform="translate(25.9765625 59.459375)scale(0.1 -0.1)">
       <use xlink:href="#BitstreamVeraSans-Roman-33"/>
       <use x="63.623046875" xlink:href="#BitstreamVeraSans-Roman-35"/>
       <use x="127.24609375" xlink:href="#BitstreamVeraSans-Roman-30"/>
       <use x="190.869140625" xlink:href="#BitstreamVeraSans-Roman-30"/>
      </g>
     </g>
    </g>
    <g id="ytick_9">
     <g id="line2d_89">
      <g>
       <use style="stroke:#000000;stroke-width:0.5;" x="54.0" xlink:href="#m728421d6d4" y="28.8"/>
      </g>
     </g>
     <g id="line2d_90">
      <g>
       <use style="stroke:#000000;stroke-width:0.5;" x="388.8" xlink:href="#mcb0005524f" y="28.8"/>
      </g>
     </g>
     <g id="text_18">
      <!-- 4000 -->
      <g transform="translate(25.703125 31.559375)scale(0.1 -0.1)">
       <use xlink:href="#BitstreamVeraSans-Roman-34"/>
       <use x="63.623046875" xlink:href="#BitstreamVeraSans-Roman-30"/>
       <use x="127.24609375" xlink:href="#BitstreamVeraSans-Roman-30"/>
       <use x="190.869140625" xlink:href="#BitstreamVeraSans-Roman-30"/>
      </g>
     </g>
    </g>
   </g>
  </g>
 </g>
 <defs>
  <clipPath id="p124b8dd147">
   <rect height="223.2" width="334.8" x="54.0" y="28.8"/>
  </clipPath>
 </defs>
</svg>
